<?xml version="1.0" standalone="no"?>
<!DOCTYPE svg PUBLIC "-//W3C//DTD SVG 20010904//EN"
 "http://www.w3.org/TR/2001/REC-SVG-20010904/DTD/svg10.dtd">
<svg version="1.0" xmlns="http://www.w3.org/2000/svg"
 width="728.000000pt" height="719.000000pt" viewBox="0 0 728.000000 719.000000"
 preserveAspectRatio="xMidYMid meet">
<metadata>
Created by potrace 1.16, written by Peter Selinger 2001-2019
</metadata>
<g transform="translate(0.000000,719.000000) scale(0.100000,-0.100000)"
fill="#222222" stroke="none">
<path d="M1245 7175 c-170 -38 -415 -143 -563 -242 -119 -80 -320 -282 -401
-402 -114 -172 -204 -376 -248 -561 -12 -53 -16 -197 -23 -780 -5 -393 -9
-874 -9 -1067 l-1 -353 1735 0 1735 0 0 1710 0 1710 -1082 -1 c-860 -1 -1095
-4 -1143 -14z m703 -690 c20 -9 56 -35 80 -58 l42 -41 0 -472 0 -472 23 -5
c12 -3 217 -4 456 -2 l434 2 40 -36 c71 -64 83 -124 42 -208 -45 -89 -30 -87
-547 -91 l-448 -4 0 -474 0 -475 -32 -35 c-45 -50 -78 -64 -143 -64 -54 0 -58
2 -105 50 l-50 49 0 476 0 475 -382 1 c-211 0 -420 4 -466 8 -72 7 -87 12
-113 37 -68 64 -79 144 -30 210 62 86 16 79 530 79 l456 0 5 470 c6 558 2 538
115 582 41 16 50 15 93 -2z"/>
<path d="M3810 5480 l0 -1710 1736 0 1735 0 -5 858 c-9 1284 -10 1299 -67
1480 -64 199 -181 402 -332 573 -203 229 -455 385 -782 482 -69 21 -87 21
-1177 24 l-1108 4 0 -1711z m2490 -75 c89 -85 93 -214 7 -270 -48 -31 -236
-37 -958 -33 l-696 3 -35 27 c-45 34 -68 83 -68 143 0 59 19 95 69 132 l39 29
806 -1 805 0 31 -30z"/>
<path d="M5 2458 c3 -535 10 -1029 15 -1098 25 -353 238 -744 543 -999 170
-141 325 -224 573 -307 l162 -54 1086 0 1086 0 0 1715 0 1715 -1736 0 -1736 0
7 -972z m2711 366 c70 -33 124 -127 108 -189 -9 -37 -124 -164 -413 -457 -141
-143 -256 -262 -256 -263 0 -2 135 -140 300 -307 333 -337 357 -368 335 -441
-22 -74 -97 -127 -181 -127 -43 0 -101 51 -405 352 -159 158 -294 288 -299
288 -5 0 -147 -137 -315 -304 -168 -167 -325 -317 -349 -335 -53 -37 -103 -41
-162 -11 -53 28 -99 92 -99 141 0 54 39 99 381 444 l297 300 -270 275 c-149
151 -293 301 -319 333 -44 52 -49 63 -49 108 0 81 46 143 126 169 81 27 111 4
519 -401 127 -126 235 -228 240 -228 6 0 134 123 285 272 409 405 435 424 526
381z"/>
<path d="M3810 1715 l0 -1715 1088 0 1087 0 150 51 c83 28 195 72 250 99 218
105 443 286 581 469 72 94 194 333 239 466 57 170 56 155 65 935 5 399 9 879
9 1068 l1 342 -1735 0 -1735 0 0 -1715z m2504 663 c39 -35 49 -51 53 -85 14
-104 -31 -174 -125 -194 -76 -16 -1448 -17 -1539 -1 -109 19 -134 41 -155 134
-10 46 6 90 54 148 l33 40 815 0 816 0 48 -42z m-132 -657 c104 -11 136 -27
166 -79 40 -72 27 -140 -41 -210 l-42 -43 -801 1 -801 1 -37 26 c-80 57 -103
151 -57 226 29 47 70 68 146 77 90 11 1367 11 1467 1z"/>
</g>
</svg>
