<?xml version="1.0" standalone="no"?>
<!DOCTYPE svg PUBLIC "-//W3C//DTD SVG 20010904//EN"
 "http://www.w3.org/TR/2001/REC-SVG-20010904/DTD/svg10.dtd">
<svg version="1.0" xmlns="http://www.w3.org/2000/svg"
 width="529.000000pt" height="108.000000pt" viewBox="0 0 529.000000 108.000000"
 preserveAspectRatio="xMidYMid meet">

<g transform="translate(0.000000,108.000000) scale(0.100000,-0.100000)"
fill="#ed2590" stroke="none">
<path d="M5 1057 c4 -14 62 -242 129 -508 l123 -484 115 -3 115 -3 41 158 c22
87 58 224 78 306 21 81 40 147 44 147 5 0 130 -491 146 -577 l6 -33 118 0 118
0 126 505 c69 278 126 507 126 510 0 3 -46 4 -102 3 l-102 -3 -80 -322 c-45
-178 -84 -323 -87 -323 -6 0 -105 393 -151 598 l-12 53 -100 -3 -100 -3 -81
-318 c-45 -174 -84 -320 -87 -323 -4 -3 -42 140 -85 318 l-79 323 -112 3 -113
3 6 -24z"/>
<path d="M3042 1049 c-104 -20 -200 -100 -250 -207 -26 -55 -27 -65 -33 -302
-4 -135 -7 -307 -8 -382 l-1 -138 115 0 115 0 0 190 0 190 70 0 70 0 0 110 0
110 -70 0 -70 0 0 31 c0 57 22 109 62 144 21 19 47 35 58 35 19 0 20 7 20 115
0 128 6 121 -78 104z"/>
<path d="M3230 535 l0 -515 105 0 105 0 0 150 0 150 44 0 c127 0 200 -80 213
-230 l6 -70 103 0 104 0 0 73 c0 179 -91 343 -211 379 -22 6 -39 15 -39 20 0
5 57 78 128 161 70 84 133 160 141 170 13 16 6 17 -117 17 l-130 0 -119 -151
-118 -152 -3 257 -2 256 -105 0 -105 0 0 -515z"/>
<path d="M2217 683 c5 -382 10 -426 58 -509 49 -85 156 -154 258 -169 l47 -6
0 115 c0 108 -1 116 -19 116 -29 0 -81 49 -102 95 -17 36 -19 72 -19 378 l0
337 -114 0 -114 0 5 -357z"/>
<path d="M4921 903 c1 -76 4 -248 8 -383 6 -236 7 -247 33 -301 57 -124 150
-193 286 -214 l42 -7 0 116 c0 109 -1 116 -20 116 -31 0 -95 64 -108 108 -7
22 -12 94 -12 161 l0 121 70 0 70 0 0 110 0 110 -70 0 -70 0 0 100 0 100 -115
0 -115 0 1 -137z"/>
<path d="M1549 841 c-230 -74 -352 -334 -263 -561 90 -230 355 -334 577 -227
252 121 322 436 147 657 -99 125 -301 182 -461 131z m209 -206 c99 -42 150
-151 118 -257 -45 -148 -205 -201 -321 -106 -48 40 -75 99 -75 166 0 66 18
110 63 153 60 57 142 74 215 44z"/>
<path d="M4053 557 c5 -242 8 -280 27 -329 30 -80 78 -131 168 -175 73 -37 80
-38 181 -38 94 0 113 3 163 27 76 35 142 98 175 167 l28 56 3 283 3 282 -110
0 -111 0 0 -233 0 -233 -27 -54 c-60 -116 -192 -121 -257 -10 -19 32 -21 54
-24 283 l-3 247 -111 0 -111 0 6 -273z"/>
</g>
</svg>
